<svg xmlns="http://www.w3.org/2000/svg" viewBox="0 0 512 512"><path d="M105.173 62.507C66.56 101.12 42.667 154.453 42.667 213.333c0 58.88 23.893 112.214 62.506 150.827l30.08-30.08c-30.933-30.72-49.92-73.387-49.92-120.747 0-47.146 18.987-90.026 49.92-120.746l-30.08-30.08m301.654 0l-30.08 30.08c30.933 30.72 49.92 73.6 49.92 120.746 0 47.36-18.987 90.027-49.92 120.747l30.08 30.08c38.613-38.613 62.506-91.947 62.506-150.827 0-58.88-23.893-112.213-62.506-150.826m-241.28 60.373C142.293 146.133 128 178.133 128 213.333s14.293 67.2 37.547 90.454l30.08-30.08c-15.36-15.36-24.96-36.694-24.96-60.374s9.6-45.013 24.96-60.373l-30.08-30.08m180.906 0l-30.08 30.08c15.36 15.36 24.96 36.693 24.96 60.373s-9.6 45.014-24.96 60.374l30.08 30.08C369.707 280.533 384 248.533 384 213.333c0-35.2-14.293-67.2-37.547-90.453M256 170.667c-23.467 0-42.667 19.2-42.667 42.666S232.533 256 256 256s42.667-19.2 42.667-42.667-19.2-42.666-42.667-42.666m-21.333 128V384h-21.334C201.6 384 192 393.6 192 405.333H42.667V448H192c0 11.733 9.6 21.333 21.333 21.333h85.334c11.733 0 21.333-9.6 21.333-21.333h149.333v-42.667H320C320 393.6 310.4 384 298.667 384h-21.334v-85.333h-42.666z"/></svg>